# AST/ASF file generated using VICON BodyLanguage
# -----------------------------------------------
:version 1.10
:name VICON
:units
  mass 1.0
  length 0.45
  angle deg
:documentation
   .ast/.asf automatically generated from VICON data using
   VICON BodyBuilder and BodyLanguage model FoxedUp or BRILLIANT.MOD
:root
   order TX TY TZ RX RY RZ
   axis XYZ
   position 0 0 0  
   orientation 0 0 0 
:bonedata
  begin
     id 1 
     name lhipjoint
     direction 0.567725 -0.736092 0.368589 
     length 2.42353 
     axis 0 0 0  XYZ
  end
  begin
     id 2 
     name lfemur
     direction 0.34202 -0.939693 0  
     length 7.24894  
     axis 0 0 20  XYZ
    dof rx ry rz
    limits (-160.0 20.0)
           (-70.0 70.0)
           (-60.0 70.0)
  end
  begin
     id 3 
     name ltibia
     direction 0.34202 -0.939693 0   
     length 7.6997   
     axis 0 0 20   XYZ
    dof rx
    limits (-10.0 170.0)
  end
  begin
     id 4 
     name lfoot
     direction 0.100767 -0.276854 0.955614   
     length 2.37556   
     axis -90 7.62852e-016 20   XYZ
    dof rx rz
    limits (-45.0 90.0)
           (-70.0 20.0)
  end
  begin
     id 5 
     name ltoes
     direction 1.53592e-011 -4.21894e-011 1   
     length 1.18363   
     axis -90 7.62852e-016 20   XYZ
    dof rx
    limits (-90.0 20.0)
  end
  begin
     id 6 
     name rhipjoint
     direction -0.556459 -0.742938 0.372017   
     length 2.4012  
     axis 0 0 0  XYZ 
  end
  begin
     id 7 
     name rfemur
     direction -0.34202 -0.939693 0   
     length 7.5119   
     axis 0 0 -20   XYZ
    dof rx ry rz
    limits (-160.0 20.0)
           (-70.0 70.0)
           (-70.0 60.0)
  end
  begin
     id 8 
     name rtibia
     direction -0.34202 -0.939693 0   
     length 7.50155   
     axis 0 0 -20   XYZ
    dof rx
    limits (-10.0 170.0)
 end
 begin
     id 9 
     name rfoot
     direction -0.118427 -0.325376 0.938139   
     length 2.32487  
     axis -90 -7.62852e-016 -20   XYZ
    dof rx rz
    limits (-45.0 90.0)
           (-20.0 70.0)
  end
  begin
     id 10 
     name rtoes
     direction -1.53525e-011 -4.21868e-011 1   
     length 1.15233   
     axis -90 -7.62852e-016 -20   XYZ
    dof rx
    limits (-90.0 20.0)
  end
  begin
     id 11 
     name lowerback
     direction 0.0287568 0.999577 -0.00434502   
     length 2.15243   
     axis 0 0 0   XYZ
    dof rx ry rz
    limits (-20.0 45.0)
           (-30.0 30.0)
           (-30.0 30.0)
  end
  begin
     id 12 
     name upperback
     direction 0.0294009 0.99956 0.00404628   
     length 2.15427   
     axis 0 0 0   XYZ
    dof rx ry rz
    limits (-20.0 45.0)
           (-30.0 30.0)
           (-30.0 30.0)
  end
  begin
     id 13 
     name thorax
     direction 0.0151014 0.999868 0.0059419   
     length 2.14898   
     axis 0 0 0   XYZ
    dof rx ry rz
    limits (-20.0 45.0)
           (-30.0 30.0)
           (-30.0 30.0)
  end
  begin
     id 14 
     name lowerneck
     direction -0.0249197 0.989906 0.139515   
     length 1.6861   
     axis 0 0 0   XYZ
    dof rx ry rz
    limits (-20.0 45.0)
           (-30.0 30.0)
           (-30.0 30.0)
  end
  begin
     id 15 
     name upperneck
     direction 0.0438463 0.988795 -0.142693   
     length 1.71276   
     axis 0 0 0   XYZ
    dof rx ry rz
    limits (-20.0 45.0)
           (-30.0 30.0)
           (-30.0 30.0)
  end
  begin
     id 16
     name head
     direction 0.0148499 0.997845 -0.0639186  
     length 1.7209  
     axis 0 0 0   XYZ
    dof rx ry rz
    limits (-20.0 45.0)
           (-30.0 30.0)
           (-30.0 30.0)
  end
  begin
     id 17 
     name lclavicle
     direction 0.940298 0.323464 -0.105876  
     length 3.9048  
     axis 0 0 0   XYZ
    dof ry rz
    limits (-20.0 10.0)
           (0.0 20.0)
  end
  begin
     id 18 
     name lhumerus
     direction 1 -4.48954e-011 -4.9675e-028   
     length 4.6851   
     axis 180 -30 -90   XYZ
    dof rx ry rz
    limits (-60.0 90.0)
           (-90.0 90.0)
           (-90.0 90.0)
  end
  begin
     id 19
     name lradius
     direction 1 -4.48992e-011 -1.03359e-026   
     length 3.39626   
     axis 180 -30 -90   XYZ
    dof rx
    limits (-10.0 170.0)
  end
  begin
     id 20
     name lwrist
     direction 1 -4.48906e-011 -1.67336e-026   
     length 1.69813   
     axis 9.90442e-015 90 90   XYZ
    dof ry
    limits (-180.0 0.0)
 end
  begin
     id 21 
     name lhand
     direction 1 -4.49006e-011 -3.34673e-026   
     length 0.486078   
     axis 2.1355e-014 90 90   XYZ
    dof rx rz
    limits (-90.0 90.0)
           (-45.0 45.0)
  end
  begin
     id 22 
     name lfingers
     direction 1 -4.48992e-011 -6.69345e-026   
     length 0.391889   
     axis 4.27099e-014 90 90   XYZ
    dof rx
    limits (0.0 90.0)
  end
  begin
     id 23
     name lthumb
     direction 0.707107 -6.34926e-011 0.707107   
     length 0.562676   
     axis -90 45 2.85299e-015   XYZ
    dof rx rz
    limits (-45.0 45.0)
           (-45.0 45.0)
  end
  begin
     id 24 
     name rclavicle
     direction -0.882459 0.414895 -0.221648   
     length 3.44646  
     axis 0 0 0   XYZ 
    dof ry rz
    limits (-10.0 20.0)
           (-20.0 0.0)
  end
  begin
     id 25 
     name rhumerus
     direction -1 -4.48962e-011 -2.37984e-027  
     length 5.55576   
     axis 180 30 90   XYZ
    dof rx ry rz
    limits (-90.0 60.0)
           (-90.0 90.0)
           (-90.0 90.0)
  end
  begin
     id 26 
     name rradius
     direction -1 -4.48982e-011 -6.86791e-027   
     length 3.32774   
     axis 180 30 90   XYZ
    dof rx
    limits (-10.0 170.0)
  end
  begin
     id 27 
     name rwrist
     direction -1 -4.48961e-011 -1.67336e-026   
     length 1.66387   
     axis 9.90442e-015 -90 -90   XYZ
    dof ry
    limits (-180.0 0.0)
  end
  begin
     id 28
     name rhand
     direction -1 -4.4897e-011 -3.34673e-026   
     length 0.507628   
     axis 2.1355e-014 -90 -90   XYZ
    dof rx rz
    limits (-90.0 90.0)
           (-45.0 45.0)
  end
  begin
     id 29
     name rfingers
     direction -1 -4.48854e-011 -6.69345e-026   
     length 0.409263   
     axis 4.27099e-014 -90 -90   XYZ
    dof rx
    limits (0.0 90.0)
  end
  begin
     id 30
     name rthumb
     direction -0.707107 -6.34913e-011 0.707107   
     length 0.587622   
     axis -90 -45 -2.85299e-015   XYZ
    dof rx rz
    limits (-45.0 45.0)
           (-45.0 45.0)
  end
:hierarchy
  begin
    root lhipjoint rhipjoint lowerback
    lhipjoint lfemur
    lfemur ltibia
    ltibia lfoot
    lfoot ltoes
    rhipjoint rfemur
    rfemur rtibia
    rtibia rfoot
    rfoot rtoes
    lowerback upperback
    upperback thorax
    thorax lowerneck lclavicle rclavicle
    lowerneck upperneck
    upperneck head
    lclavicle lhumerus
    lhumerus lradius
    lradius lwrist
    lwrist lhand lthumb
    lhand lfingers
    rclavicle rhumerus
    rhumerus rradius
    rradius rwrist
    rwrist rhand rthumb
    rhand rfingers
  end

#!OML:ASF E:\motion texture\Top Level 1\Subject 1\Session 1\male.ASF
:FULLY-SPECIFIED
:DEGREES
22
root 41.1355 17.8545 6.00175 106.078 -84.7712 -98.0258
lowerback -5.73961 -0.389529 3.43273
upperback -2.72829 -0.844601 3.44558
thorax 0.412431 -0.481441 1.56778
lowerneck -18.6302 -5.07023 -7.97644
upperneck 10.0266 -6.40636 10.3119
head 6.70176 -2.57307 3.91792
rclavicle -9.44305e-015 6.24184e-014
rhumerus -29.6581 -7.97613 -76.6985
rradius 26.5062
rwrist 10.3316
rhand -14.0284 -22.084
rfingers 7.12502
rthumb 12.1018 -51.714
lclavicle -9.44305e-015 6.24184e-014
lhumerus -36.2293 16.591 80.4485
lradius 25.8974
lwrist -27.5698
lhand -11.5835 16.6736
lfingers 7.12502
lthumb 14.4583 46.1499
rfemur -8.41978 2.56044 26.73
rtibia 14.7216
rfoot -9.5239 -10.9266
rtoes 15.1004
lfemur -6.87101 -3.58405 -13.118
ltibia 11.4554
lfoot -9.56025 2.75244
ltoes 6.10541
23
root 41.1348 17.8543 5.99716 105.886 -84.7983 -97.817
lowerback -5.88554 -0.368753 3.41049
upperback -2.70332 -0.823876 3.40067
thorax 0.518986 -0.469486 1.53354
lowerneck -18.2176 -5.03176 -7.93594
upperneck 9.78447 -6.37603 10.329
head 6.55247 -2.57117 3.92378
rclavicle 4.13895e-015 -2.3059e-014
rhumerus -29.8018 -8.09572 -76.7568
rradius 26.4572
rwrist 10.4101
rhand -13.6343 -22.3502
rfingers 7.12502
rthumb 12.4817 -51.9575
lclavicle 4.13895e-015 -2.3059e-014
lhumerus -36.2028 16.2933 80.4351
lradius 26.095
lwrist -27.2483
lhand -11.6931 16.7227
lfingers 7.12502
lthumb 14.3527 46.2065
rfemur -8.4528 2.55259 26.7243
rtibia 14.7601
rfoot -9.54807 -10.9571
rtoes 15.0744
lfemur -6.87732 -3.6226 -13.1326
ltibia 11.4319
lfoot -9.55661 2.76743
ltoes 6.0966
24
root 41.1341 17.8541 5.99258 105.728 -84.8271 -97.6402
lowerback -5.97202 -0.350196 3.38518
upperback -2.6685 -0.802408 3.36232
thorax 0.602759 -0.457086 1.50843
lowerneck -18.0152 -5.01016 -7.89607
upperneck 9.63856 -6.35955 10.3335
head 6.46976 -2.56952 3.92217
rclavicle -4.91565e-015 -8.34896e-015
rhumerus -29.8902 -8.21904 -76.8142
rradius 26.3943
rwrist 10.487
rhand -13.4425 -22.3924
rfingers 7.12502
rthumb 12.6666 -51.9882
lclavicle -4.91565e-015 -8.34896e-015
lhumerus -36.1266 16.0336 80.4371
lradius 26.2795
lwrist -26.96
lhand -11.7776 16.7604
lfingers 7.12502
lthumb 14.2713 46.25
rfemur -8.49093 2.54463 26.7149
rtibia 14.8026
rfoot -9.57558 -10.9851
rtoes 15.0594
lfemur -6.88791 -3.66016 -13.1499
ltibia 11.4108
lfoot -9.55399 2.78433
ltoes 6.0861
25
root 41.1336 17.8539 5.98815 105.582 -84.8565 -97.4737
lowerback -5.9762 -0.342929 3.35691
upperback -2.61518 -0.791525 3.34187
thorax 0.660119 -0.449829 1.50341
lowerneck -18.1242 -5.00973 -7.86872
upperneck 9.63303 -6.35521 10.3146
head 6.48398 -2.56486 3.91084
rclavicle -1.04828e-015 -8.74653e-015
rhumerus -29.8832 -8.32269 -76.8696
rradius 26.3123
rwrist 10.5617
rhand -13.1217 -22.6072
rfingers 7.12502
rthumb 12.9759 -52.1837
lclavicle -1.04828e-015 -8.74653e-015
lhumerus -35.9781 15.8496 80.4657
lradius 26.449
lwrist -26.7032
lhand -11.8398 16.796
lfingers 7.12502
lthumb 14.2113 46.2898
rfemur -8.53389 2.52786 26.703
rtibia 14.8504
rfoot -9.60204 -11.0048
rtoes 15.023
lfemur -6.90085 -3.69523 -13.1682
ltibia 11.3906
lfoot -9.55093 2.79818
ltoes 6.07964
26
root 41.1331 17.8537 5.98376 105.465 -84.8847 -97.3353
lowerback -5.94942 -0.331042 3.33125
upperback -2.56442 -0.772506 3.31834
thorax 0.697518 -0.438682 1.49459
lowerneck -18.3073 -5.01919 -7.82748
upperneck 9.6708 -6.36495 10.2862
head 6.52477 -2.56447 3.89179
rclavicle -2.43511e-015 1.74931e-014
rhumerus -29.8719 -8.44739 -76.9235
rradius 26.2217
rwrist 10.6341
rhand -12.9837 -22.6224
rfingers 7.12502
rthumb 13.1089 -52.1903
lclavicle -2.43511e-015 1.74931e-014
lhumerus -35.8183 15.6561 80.4996
lradius 26.6128
lwrist -26.4549
lhand -11.8747 16.8248
lfingers 7.12502
lthumb 14.1777 46.321
rfemur -8.58154 2.5097 26.6899
rtibia 14.9009
rfoot -9.63159 -11.0158
rtoes 15.0076
lfemur -6.91765 -3.72409 -13.1843
ltibia 11.3743
lfoot -9.54893 2.80655
ltoes 6.07881
